<svg height="24" viewBox="0 0 24 24" width="24" xmlns="http://www.w3.org/2000/svg"><g transform="translate(0 -1028.3622)"><path d="m1.5007862 1050.8614v-20.9984h20.9984278v20.9981z" fill="none" stroke="#888a85" stroke-width="1.001572"/><g stroke="#eeeeec"><path d="m13.666667 1040.0288h.666667v.666667h-.666667z" fill="#eeeeec" stroke-width="1.333333"/><path d="m15.666667 1038.0288h.666667v.666667h-.666667z" fill="#eeeeec" stroke-width="1.333333"/><path d="m9.666667 1040.0288h.666667v.666667h-.666667z" fill="#eeeeec" stroke-width="1.333333"/><path d="m11.666667 1038.0288h.666667v.666667h-.666667z" fill="#eeeeec" stroke-width="1.333333"/><path d="m7.666667 1038.0288h.666667v.666667h-.666667z" fill="#eeeeec" stroke-width="1.333333"/><path d="m17.666666 1036.0288h.666667v.666667h-.666667z" fill="#eeeeec" stroke-width="1.333333"/><path d="m5.666667 1036.0288h.666667v.666667h-.666667z" fill="#eeeeec" stroke-width="1.333333"/><path d="m9.666667 1036.0288h.666667v.666667h-.666667z" fill="#eeeeec" stroke-width="1.333333"/><path d="m13.666667 1036.0288h.666667v.666667h-.666667z" fill="#eeeeec" stroke-width="1.333333"/><path d="m7.666667 1034.0288h.666667v.666667h-.666667z" fill="#eeeeec" stroke-width="1.333333"/><path d="m11.666667 1034.0288h.666667v.666667h-.666667z" fill="#eeeeec" stroke-width="1.333333"/><path d="m15.666667 1034.0288h.666667v.666667h-.666667z" fill="#eeeeec" stroke-width="1.333333"/><path d="m5.666667 1040.0288h.666667v.666667h-.666667z" fill="#eeeeec" stroke-width="1.333333"/><path d="m17.666666 1040.0288h.666667v.666667h-.666667z" fill="#eeeeec" stroke-width="1.333333"/><path d="m7.666667 1042.0288h.666667v.666667h-.666667z" fill="#eeeeec" stroke-width="1.333333"/><path d="m11.666667 1042.0288h.666667v.666667h-.666667z" fill="#eeeeec" stroke-width="1.333333"/><path d="m5.666667 1044.0288h.666667v.666667h-.666667z" fill="#eeeeec" stroke-width="1.333333"/><path d="m9.666667 1044.0288h.666667v.666667h-.666667z" fill="#eeeeec" stroke-width="1.333333"/><path d="m7.666667 1046.0288h.666667v.666667h-.666667z" fill="#eeeeec" stroke-width="1.333333"/><path d="m11.666667 1046.0288h.666667v.666667h-.666667z" fill="#eeeeec" stroke-width="1.333333"/><path d="m13.5 1043.3622v2" fill="none"/><path d="m17 1041.8622h-2" fill="none"/></g><path d="m4.4673912 1047.8523v-14.9901h15.0326088v10h-5v5z" fill="none" stroke="#babdb6"/><path d="m16.449648 1044.7512h4.145734v4.262815h-4.145734z" fill="#d3d7cf" stroke="#d3d7cf" stroke-width=".886253"/><path d="m17.102173 1045.8827h3" fill="none" stroke="#888a85"/><path d="m18.602173 1048.3827v-2.5" fill="none" stroke="#888a85"/></g></svg>